<svg width="192" height="238" viewBox="0 0 192 238" fill="none" xmlns="http://www.w3.org/2000/svg">
<path d="M0.5 155.697V50.8242L95.5 100.303V205.176L0.5 155.697Z" fill="#C4C4C4" stroke="#727272"/>
<path d="M1.08669 50.0022L96 1.06255L190.913 50.0022L96 99.4362L1.08669 50.0022Z" fill="#C4C4C4" stroke="#727272"/>
<path d="M1.08669 50.0022L96 1.06255L190.913 50.0022L96 99.4362L1.08669 50.0022Z" fill="#C4C4C4" stroke="#727272"/>
<path d="M96.5 100.303V205.176L191.5 155.697V50.8242L96.5 100.303Z" fill="#C4C4C4" stroke="#727272"/>
<path d="M105 147.12L173.191 111.414C179.783 107.963 183.913 101.137 183.913 93.6961V78.5241C183.913 71.0083 175.933 66.1787 169.275 69.6651L105 103.32V147.12Z" fill="#616161"/>
<path d="M105 195L173.191 159.294C179.783 155.843 183.913 149.017 183.913 141.576V126.404C183.913 118.888 175.933 114.059 169.275 117.545L105 151.2V195Z" fill="#616161"/>
<path d="M9 109.88L77.1908 145.586C83.7826 149.037 87.9133 155.863 87.9133 163.304V178.476C87.9133 185.992 79.9329 190.821 73.2746 187.335L9 153.68V109.88Z" fill="#616161"/>
<path d="M9 62L77.1908 97.7059C83.7826 101.157 87.9133 107.983 87.9133 115.424V130.596C87.9133 138.112 79.9329 142.941 73.2746 139.455L9 105.8V62Z" fill="#616161"/>
<path d="M113.5 31L75 51L79.5 54L118 33.5L113.5 31Z" fill="#454545" stroke="#727272"/>
<path d="M22.9316 232H28.165C28.8613 231.993 29.5352 231.884 30.1865 231.674C30.8454 231.465 31.4256 231.161 31.9272 230.765C32.4289 230.375 32.8294 229.889 33.1289 229.305C33.4284 228.721 33.5744 228.047 33.5669 227.283C33.5669 226.797 33.492 226.344 33.3423 225.924C33.2 225.505 32.9979 225.127 32.7358 224.79C32.4888 224.483 32.1743 224.202 31.7925 223.948C31.4106 223.693 31.0138 223.517 30.6021 223.42V223.386C30.9989 223.214 31.3358 223.031 31.6128 222.836C31.8973 222.641 32.1556 222.402 32.3877 222.117C32.6123 221.84 32.7882 221.526 32.9155 221.174C33.0503 220.822 33.1214 220.433 33.1289 220.006C33.1364 219.242 32.9904 218.587 32.6909 218.041C32.3914 217.494 31.9909 217.045 31.4893 216.693C30.9876 216.341 30.4149 216.083 29.771 215.918C29.1271 215.746 28.4683 215.656 27.7944 215.648H22.9316V232ZM25.0205 224.352H28.3335C28.7752 224.367 29.187 224.442 29.5688 224.577C29.9507 224.711 30.2839 224.902 30.5684 225.149C30.8529 225.404 31.0737 225.711 31.231 226.07C31.3957 226.43 31.4743 226.841 31.4668 227.306C31.4668 227.762 31.377 228.17 31.1973 228.53C31.0251 228.889 30.7892 229.192 30.4897 229.439C30.1903 229.687 29.8459 229.881 29.4565 230.023C29.0672 230.158 28.6554 230.229 28.2212 230.237H25.0205V224.352ZM25.0205 222.623V217.423H27.8618C28.2661 217.43 28.6592 217.483 29.041 217.58C29.4303 217.677 29.7747 217.827 30.0742 218.029C30.3662 218.239 30.5983 218.505 30.7705 218.827C30.9502 219.149 31.04 219.538 31.04 219.995C31.04 220.421 30.9502 220.796 30.7705 221.118C30.5908 221.44 30.355 221.709 30.063 221.926C29.771 222.151 29.4378 222.323 29.0635 222.443C28.6891 222.555 28.3073 222.615 27.918 222.623H25.0205ZM37.0933 214.75V216.558H41.2261V230.203H37.0933V232H47.2681V230.203H43.3037V214.75H37.0933ZM49.9971 225.812V226.059C49.9971 226.935 50.1243 227.747 50.3789 228.496C50.6335 229.245 51.0003 229.896 51.4795 230.45C51.9512 231.004 52.5277 231.438 53.209 231.753C53.8978 232.067 54.6727 232.225 55.5337 232.225C56.3872 232.225 57.1546 232.067 57.8359 231.753C58.5173 231.438 59.0975 231.004 59.5767 230.45C60.0483 229.896 60.4115 229.245 60.666 228.496C60.9206 227.747 61.0479 226.935 61.0479 226.059V225.812C61.0479 224.936 60.9206 224.124 60.666 223.375C60.4115 222.619 60.0483 221.964 59.5767 221.41C59.0975 220.856 58.5135 220.421 57.8247 220.107C57.1434 219.785 56.3722 219.624 55.5112 219.624C54.6577 219.624 53.8903 219.785 53.209 220.107C52.5277 220.421 51.9512 220.856 51.4795 221.41C51.0003 221.964 50.6335 222.619 50.3789 223.375C50.1243 224.124 49.9971 224.936 49.9971 225.812ZM52.0747 226.059V225.812C52.0747 225.221 52.1458 224.655 52.2881 224.116C52.4303 223.57 52.6475 223.09 52.9395 222.679C53.224 222.267 53.5796 221.941 54.0063 221.702C54.4331 221.455 54.9347 221.331 55.5112 221.331C56.0877 221.331 56.5894 221.455 57.0161 221.702C57.4504 221.941 57.8135 222.267 58.1055 222.679C58.39 223.09 58.6034 223.57 58.7456 224.116C58.8953 224.655 58.9702 225.221 58.9702 225.812V226.059C58.9702 226.658 58.8991 227.231 58.7568 227.777C58.6146 228.316 58.4012 228.792 58.1167 229.204C57.8247 229.615 57.4616 229.941 57.0273 230.181C56.6006 230.42 56.1027 230.54 55.5337 230.54C54.9572 230.54 54.4518 230.42 54.0176 230.181C53.5833 229.941 53.224 229.615 52.9395 229.204C52.6475 228.792 52.4303 228.316 52.2881 227.777C52.1458 227.231 52.0747 226.658 52.0747 226.059ZM69.5718 230.54C68.9204 230.54 68.3739 230.413 67.9321 230.158C67.4979 229.896 67.1497 229.556 66.8877 229.136C66.6182 228.724 66.4235 228.26 66.3037 227.744C66.1914 227.22 66.1353 226.692 66.1353 226.16V225.688C66.1353 225.164 66.1914 224.644 66.3037 224.127C66.4235 223.611 66.6182 223.143 66.8877 222.724C67.1572 222.312 67.5091 221.979 67.9434 221.724C68.3851 221.462 68.9279 221.331 69.5718 221.331C69.991 221.331 70.3804 221.402 70.7397 221.544C71.1066 221.687 71.4211 221.881 71.6831 222.128C71.9451 222.375 72.151 222.664 72.3008 222.993C72.458 223.315 72.5404 223.66 72.5479 224.026H74.5132C74.5132 223.412 74.3896 222.836 74.1426 222.297C73.8955 221.758 73.5549 221.29 73.1206 220.893C72.6789 220.504 72.1548 220.197 71.5483 219.972C70.9494 219.74 70.2905 219.624 69.5718 219.624C68.6509 219.624 67.846 219.789 67.1572 220.118C66.4684 220.448 65.8957 220.889 65.439 221.443C64.9748 222.005 64.6266 222.653 64.3945 223.386C64.1624 224.12 64.0464 224.887 64.0464 225.688V226.16C64.0464 226.969 64.1624 227.74 64.3945 228.474C64.6266 229.2 64.9748 229.84 65.439 230.394C65.8957 230.956 66.4684 231.401 67.1572 231.73C67.846 232.06 68.6509 232.225 69.5718 232.225C70.2157 232.225 70.8333 232.116 71.4248 231.899C72.0163 231.674 72.5404 231.375 72.9971 231C73.4538 230.634 73.8169 230.207 74.0864 229.72C74.3634 229.226 74.5057 228.709 74.5132 228.17H72.5479C72.5404 228.507 72.4505 228.822 72.2783 229.114C72.1136 229.398 71.8927 229.645 71.6157 229.855C71.3387 230.072 71.0205 230.241 70.6611 230.36C70.3092 230.48 69.9461 230.54 69.5718 230.54ZM81.8467 226.329L86.3052 232H88.9443L83.2729 224.914L88.1919 219.849H85.665L81.6782 223.847L80.3193 225.307V214.75H78.2305V232H80.3193V227.8L81.8467 226.329ZM105.812 232H111.046C111.742 231.993 112.416 231.884 113.067 231.674C113.726 231.465 114.306 231.161 114.808 230.765C115.31 230.375 115.71 229.889 116.01 229.305C116.309 228.721 116.455 228.047 116.448 227.283C116.448 226.797 116.373 226.344 116.223 225.924C116.081 225.505 115.879 225.127 115.617 224.79C115.37 224.483 115.055 224.202 114.673 223.948C114.292 223.693 113.895 223.517 113.483 223.42V223.386C113.88 223.214 114.217 223.031 114.494 222.836C114.778 222.641 115.036 222.402 115.269 222.117C115.493 221.84 115.669 221.526 115.796 221.174C115.931 220.822 116.002 220.433 116.01 220.006C116.017 219.242 115.871 218.587 115.572 218.041C115.272 217.494 114.872 217.045 114.37 216.693C113.868 216.341 113.296 216.083 112.652 215.918C112.008 215.746 111.349 215.656 110.675 215.648H105.812V232ZM107.901 224.352H111.214C111.656 224.367 112.068 224.442 112.45 224.577C112.832 224.711 113.165 224.902 113.449 225.149C113.734 225.404 113.955 225.711 114.112 226.07C114.277 226.43 114.355 226.841 114.348 227.306C114.348 227.762 114.258 228.17 114.078 228.53C113.906 228.889 113.67 229.192 113.371 229.439C113.071 229.687 112.727 229.881 112.337 230.023C111.948 230.158 111.536 230.229 111.102 230.237H107.901V224.352ZM107.901 222.623V217.423H110.743C111.147 217.43 111.54 217.483 111.922 217.58C112.311 217.677 112.656 217.827 112.955 218.029C113.247 218.239 113.479 218.505 113.651 218.827C113.831 219.149 113.921 219.538 113.921 219.995C113.921 220.421 113.831 220.796 113.651 221.118C113.472 221.44 113.236 221.709 112.944 221.926C112.652 222.151 112.319 222.323 111.944 222.443C111.57 222.555 111.188 222.615 110.799 222.623H107.901ZM127.633 232H129.801V231.82C129.666 231.483 129.561 231.09 129.486 230.641C129.411 230.184 129.374 229.754 129.374 229.35V223.701C129.374 223.019 129.25 222.424 129.003 221.915C128.756 221.406 128.419 220.979 127.993 220.635C127.558 220.298 127.046 220.047 126.454 219.882C125.863 219.71 125.222 219.624 124.534 219.624C123.778 219.624 123.1 219.729 122.501 219.938C121.91 220.148 121.408 220.421 120.996 220.758C120.577 221.103 120.255 221.488 120.03 221.915C119.813 222.342 119.701 222.776 119.693 223.218H121.782C121.782 222.963 121.842 222.72 121.962 222.488C122.089 222.248 122.265 222.042 122.49 221.87C122.714 221.698 122.988 221.559 123.31 221.455C123.639 221.35 124.01 221.297 124.421 221.297C124.863 221.297 125.26 221.354 125.612 221.466C125.971 221.578 126.274 221.735 126.521 221.938C126.769 222.147 126.959 222.398 127.094 222.69C127.229 222.982 127.296 223.311 127.296 223.678V224.633H125.028C124.182 224.633 123.414 224.715 122.726 224.88C122.044 225.045 121.46 225.292 120.974 225.621C120.487 225.958 120.109 226.377 119.839 226.879C119.577 227.381 119.446 227.965 119.446 228.631C119.446 229.14 119.544 229.615 119.738 230.057C119.94 230.491 120.225 230.866 120.592 231.18C120.951 231.502 121.389 231.757 121.906 231.944C122.43 232.131 123.014 232.225 123.658 232.225C124.055 232.225 124.429 232.183 124.781 232.101C125.133 232.019 125.466 231.906 125.78 231.764C126.087 231.622 126.368 231.457 126.623 231.27C126.885 231.083 127.12 230.884 127.33 230.675C127.353 230.929 127.386 231.176 127.431 231.416C127.484 231.648 127.551 231.843 127.633 232ZM123.961 230.417C123.557 230.417 123.201 230.364 122.894 230.259C122.587 230.154 122.333 230.008 122.13 229.821C121.928 229.642 121.775 229.424 121.67 229.17C121.573 228.915 121.524 228.638 121.524 228.339C121.524 228.024 121.58 227.744 121.692 227.497C121.812 227.25 121.984 227.036 122.209 226.856C122.523 226.602 122.946 226.415 123.478 226.295C124.017 226.168 124.646 226.104 125.365 226.104H127.296V228.563C127.177 228.803 127.012 229.035 126.802 229.26C126.593 229.477 126.346 229.672 126.061 229.844C125.769 230.016 125.447 230.154 125.095 230.259C124.743 230.364 124.365 230.417 123.961 230.417ZM133.788 214.75V216.558H137.92V230.203H133.788V232H143.962V230.203H139.998V214.75H133.788ZM147.601 214.75V216.558H151.734V230.203H147.601V232H157.776V230.203H153.812V214.75H147.601ZM160.505 225.812V226.059C160.505 226.935 160.632 227.747 160.887 228.496C161.141 229.245 161.508 229.896 161.987 230.45C162.459 231.004 163.035 231.438 163.717 231.753C164.406 232.067 165.181 232.225 166.042 232.225C166.895 232.225 167.662 232.067 168.344 231.753C169.025 231.438 169.605 231.004 170.084 230.45C170.556 229.896 170.919 229.245 171.174 228.496C171.428 227.747 171.556 226.935 171.556 226.059V225.812C171.556 224.936 171.428 224.124 171.174 223.375C170.919 222.619 170.556 221.964 170.084 221.41C169.605 220.856 169.021 220.421 168.333 220.107C167.651 219.785 166.88 219.624 166.019 219.624C165.166 219.624 164.398 219.785 163.717 220.107C163.035 220.421 162.459 220.856 161.987 221.41C161.508 221.964 161.141 222.619 160.887 223.375C160.632 224.124 160.505 224.936 160.505 225.812ZM162.583 226.059V225.812C162.583 225.221 162.654 224.655 162.796 224.116C162.938 223.57 163.155 223.09 163.447 222.679C163.732 222.267 164.087 221.941 164.514 221.702C164.941 221.455 165.443 221.331 166.019 221.331C166.596 221.331 167.097 221.455 167.524 221.702C167.958 221.941 168.321 222.267 168.613 222.679C168.898 223.09 169.111 223.57 169.253 224.116C169.403 224.655 169.478 225.221 169.478 225.812V226.059C169.478 226.658 169.407 227.231 169.265 227.777C169.122 228.316 168.909 228.792 168.625 229.204C168.333 229.615 167.969 229.941 167.535 230.181C167.108 230.42 166.611 230.54 166.042 230.54C165.465 230.54 164.96 230.42 164.525 230.181C164.091 229.941 163.732 229.615 163.447 229.204C163.155 228.792 162.938 228.316 162.796 227.777C162.654 227.231 162.583 226.658 162.583 226.059ZM179.821 216.906H177.732V219.849H174.543V221.455H177.732V228.058C177.732 228.807 177.83 229.447 178.024 229.979C178.227 230.503 178.5 230.929 178.844 231.259C179.189 231.596 179.593 231.843 180.057 232C180.529 232.15 181.034 232.225 181.573 232.225C181.895 232.225 182.217 232.21 182.539 232.18C182.868 232.15 183.179 232.105 183.471 232.045C183.763 231.993 184.033 231.929 184.28 231.854C184.527 231.772 184.736 231.678 184.909 231.573L184.617 230.102C184.489 230.132 184.325 230.169 184.123 230.214C183.928 230.252 183.718 230.289 183.494 230.327C183.262 230.364 183.026 230.398 182.786 230.428C182.547 230.45 182.314 230.461 182.09 230.461C181.783 230.461 181.491 230.424 181.214 230.349C180.944 230.274 180.705 230.143 180.495 229.956C180.285 229.776 180.121 229.533 180.001 229.226C179.881 228.919 179.821 228.53 179.821 228.058V221.455H184.448V219.849H179.821V216.906Z" fill="black"/>
</svg>
