<svg width="137" height="86" viewBox="0 0 137 86" fill="none" xmlns="http://www.w3.org/2000/svg">
<path d="M0.5 64.2165V21.3626L39.3322 41.5877V84.4416L0.5 64.2165Z" fill="#C4C4C4" stroke="#727272"/>
<path d="M1.08669 20.5407L39.8322 0.562554L78.5776 20.5407L39.8322 40.7206L1.08669 20.5407Z" fill="#C4C4C4" stroke="#727272"/>
<path d="M1.08669 20.5407L39.8322 0.562554L78.5776 20.5407L39.8322 40.7206L1.08669 20.5407Z" fill="#C4C4C4" stroke="#727272"/>
<path d="M40.3322 41.5877V84.4416L79.1643 64.2165V21.3626L40.3322 41.5877Z" fill="#C4C4C4" stroke="#727272"/>
<path d="M43.5664 60.8353L69.5022 47.2549C73.6868 45.0638 76.309 40.7308 76.309 36.0072V36.0072C76.309 31.2361 71.2429 28.1702 67.0161 30.3834L43.5664 42.6621V60.8353Z" fill="#616161"/>
<path d="M43.5664 80.7016L69.5022 67.1212C73.6868 64.9301 76.309 60.5971 76.309 55.8735V55.8735C76.309 51.1024 71.2429 48.0365 67.0161 50.2497L43.5664 62.5284V80.7016Z" fill="#616161"/>
<path d="M3.73425 45.3838L29.67 58.9642C33.8546 61.1553 36.4768 65.4884 36.4768 70.2119V70.2119C36.4768 74.983 31.4107 78.0489 27.184 75.8357L3.73425 63.5571V45.3838Z" fill="#616161"/>
<path d="M3.73425 25.5175L29.67 39.0979C33.8546 41.289 36.4768 45.6221 36.4768 50.3456V50.3456C36.4768 55.1167 31.4107 58.1826 27.184 55.9694L3.73425 43.6908V25.5175Z" fill="#616161"/>
<path d="M47.0932 12.655L31.1189 20.9534L32.986 22.1981L48.9604 13.6923L47.0932 12.655Z" fill="#454545" stroke="#727272"/>
<path d="M93.8881 39.1566H96.9262C97.3304 39.1525 97.7216 39.093 98.0997 38.978C98.4822 38.8631 98.819 38.6969 99.1102 38.4793C99.4014 38.2659 99.634 37.999 99.8078 37.6789C99.9817 37.3587 100.066 36.9893 100.062 36.5706C100.062 36.3038 100.019 36.0555 99.9317 35.8256C99.8491 35.5957 99.7318 35.3884 99.5796 35.2037C99.4362 35.0354 99.2537 34.8815 99.032 34.742C98.8103 34.6024 98.58 34.5059 98.3409 34.4526V34.4341C98.5713 34.3397 98.7669 34.2391 98.9277 34.1324C99.0928 34.0257 99.2428 33.8943 99.3775 33.7383C99.5079 33.5865 99.6101 33.4141 99.684 33.2212C99.7622 33.0282 99.8035 32.8148 99.8078 32.5808C99.8122 32.1621 99.7274 31.803 99.5536 31.5033C99.3797 31.2037 99.1472 30.9574 98.856 30.7645C98.5648 30.5716 98.2323 30.4299 97.8585 30.3396C97.4847 30.2452 97.1022 30.196 96.7111 30.1919H93.8881V39.1566ZM95.1007 34.9636H97.024C97.2804 34.9718 97.5195 35.0129 97.7411 35.0867C97.9628 35.1606 98.1562 35.2653 98.3214 35.4008C98.4865 35.5403 98.6148 35.7086 98.706 35.9056C98.8016 36.1027 98.8473 36.3284 98.8429 36.5829C98.8429 36.8333 98.7908 37.057 98.6865 37.254C98.5865 37.4511 98.4496 37.6173 98.2757 37.7528C98.1019 37.8882 97.902 37.9949 97.6759 38.0729C97.4499 38.1468 97.2109 38.1858 96.9588 38.1899H95.1007V34.9636ZM95.1007 34.0154V31.1647H96.7502C96.9849 31.1688 97.2131 31.1975 97.4347 31.2509C97.6607 31.3042 97.8607 31.3863 98.0345 31.4972C98.204 31.6121 98.3388 31.7578 98.4387 31.9343C98.543 32.1108 98.5952 32.3243 98.5952 32.5747C98.5952 32.8086 98.543 33.0139 98.4387 33.1904C98.3344 33.3669 98.1975 33.5146 98.028 33.6337C97.8585 33.7568 97.6651 33.8512 97.4478 33.9169C97.2304 33.9785 97.0088 34.0113 96.7828 34.0154H95.1007Z" fill="#C4C4C4"/>
<path d="M102.109 29.6993V30.6906H104.508V38.1714H102.109V39.1566H108.016V38.1714H105.714V29.6993H102.109Z" fill="#C4C4C4"/>
<path d="M109.6 35.764V35.8995C109.6 36.3797 109.674 36.8251 109.822 37.2356C109.97 37.646 110.183 38.0032 110.461 38.3069C110.735 38.6107 111.069 38.8487 111.465 39.0211C111.865 39.1935 112.314 39.2797 112.814 39.2797C113.31 39.2797 113.755 39.1935 114.151 39.0211C114.546 38.8487 114.883 38.6107 115.161 38.3069C115.435 38.0032 115.646 37.646 115.794 37.2356C115.941 36.8251 116.015 36.3797 116.015 35.8995V35.764C116.015 35.2838 115.941 34.8384 115.794 34.4279C115.646 34.0134 115.435 33.6542 115.161 33.3505C114.883 33.0467 114.544 32.8086 114.144 32.6362C113.749 32.4597 113.301 32.3715 112.801 32.3715C112.306 32.3715 111.86 32.4597 111.465 32.6362C111.069 32.8086 110.735 33.0467 110.461 33.3505C110.183 33.6542 109.97 34.0134 109.822 34.4279C109.674 34.8384 109.6 35.2838 109.6 35.764ZM110.806 35.8995V35.764C110.806 35.4398 110.848 35.1298 110.93 34.8343C111.013 34.5347 111.139 34.272 111.308 34.0462C111.473 33.8204 111.68 33.6419 111.928 33.5105C112.175 33.3751 112.467 33.3074 112.801 33.3074C113.136 33.3074 113.427 33.3751 113.675 33.5105C113.927 33.6419 114.138 33.8204 114.307 34.0462C114.472 34.272 114.596 34.5347 114.679 34.8343C114.766 35.1298 114.809 35.4398 114.809 35.764V35.8995C114.809 36.2279 114.768 36.5419 114.685 36.8415C114.603 37.1371 114.479 37.3977 114.314 37.6235C114.144 37.8492 113.933 38.0278 113.681 38.1591C113.434 38.2905 113.145 38.3562 112.814 38.3562C112.48 38.3562 112.186 38.2905 111.934 38.1591C111.682 38.0278 111.473 37.8492 111.308 37.6235C111.139 37.3977 111.013 37.1371 110.93 36.8415C110.848 36.5419 110.806 36.2279 110.806 35.8995Z" fill="#C4C4C4"/>
<path d="M120.964 38.3562C120.585 38.3562 120.268 38.2864 120.012 38.1468C119.76 38.0032 119.558 37.8164 119.405 37.5865C119.249 37.3608 119.136 37.1063 119.066 36.823C119.001 36.5357 118.969 36.2463 118.969 35.9549V35.6963C118.969 35.409 119.001 35.1237 119.066 34.8405C119.136 34.5572 119.249 34.3007 119.405 34.0708C119.562 33.8451 119.766 33.6624 120.018 33.5229C120.275 33.3792 120.59 33.3074 120.964 33.3074C121.207 33.3074 121.433 33.3463 121.642 33.4243C121.855 33.5023 122.037 33.609 122.189 33.7445C122.341 33.88 122.461 34.038 122.548 34.2186C122.639 34.3951 122.687 34.5839 122.691 34.7851H123.832C123.832 34.4485 123.76 34.1324 123.617 33.8369C123.474 33.5413 123.276 33.2848 123.024 33.0672C122.767 32.8538 122.463 32.6855 122.111 32.5623C121.763 32.4351 121.381 32.3715 120.964 32.3715C120.429 32.3715 119.962 32.4618 119.562 32.6424C119.162 32.823 118.83 33.0652 118.564 33.3689C118.295 33.6768 118.093 34.0318 117.958 34.4341C117.823 34.8364 117.756 35.2571 117.756 35.6963V35.9549C117.756 36.3982 117.823 36.821 117.958 37.2233C118.093 37.6214 118.295 37.9724 118.564 38.2761C118.83 38.584 119.162 38.8282 119.562 39.0088C119.962 39.1894 120.429 39.2797 120.964 39.2797C121.337 39.2797 121.696 39.2202 122.039 39.1012C122.383 38.978 122.687 38.8138 122.952 38.6086C123.217 38.4075 123.428 38.1735 123.584 37.9067C123.745 37.6358 123.828 37.3526 123.832 37.057H122.691C122.687 37.2417 122.635 37.4141 122.535 37.5742C122.439 37.7302 122.311 37.8656 122.15 37.9806C121.989 38.0996 121.805 38.192 121.596 38.2576C121.392 38.3233 121.181 38.3562 120.964 38.3562Z" fill="#C4C4C4"/>
<path d="M128.089 36.0473L130.678 39.1566H132.21L128.917 35.2715L131.773 32.4946H130.306L127.992 34.6865L127.203 35.487V29.6993H125.99V39.1566H127.203V36.8538L128.089 36.0473Z" fill="#C4C4C4"/>
<path d="M91.014 55.431H94.0567C94.4615 55.4265 94.8532 55.361 95.2319 55.2346C95.615 55.1081 95.9523 54.9253 96.244 54.686C96.5356 54.4512 96.7685 54.1577 96.9426 53.8055C97.1167 53.4533 97.2016 53.047 97.1973 52.5864C97.1973 52.2929 97.1537 52.0198 97.0667 51.7669C96.984 51.514 96.8664 51.286 96.7141 51.0828C96.5704 50.8977 96.3876 50.7284 96.1656 50.5749C95.9436 50.4214 95.7129 50.3153 95.4735 50.2566V50.2362C95.7042 50.1324 95.9001 50.0218 96.0612 49.9044C96.2266 49.787 96.3767 49.6425 96.5117 49.4709C96.6423 49.3039 96.7446 49.1142 96.8186 48.902C96.8969 48.6898 96.9383 48.455 96.9426 48.1976C96.947 47.7371 96.8621 47.342 96.688 47.0124C96.5139 46.6828 96.281 46.4119 95.9893 46.1997C95.6977 45.9875 95.3647 45.8317 94.9903 45.7323C94.616 45.6285 94.2329 45.5743 93.8412 45.5698H91.014V55.431ZM92.2284 50.8187H94.1546C94.4114 50.8277 94.6508 50.8729 94.8728 50.9542C95.0948 51.0354 95.2885 51.1506 95.4539 51.2996C95.6193 51.4531 95.7478 51.6382 95.8392 51.8549C95.9349 52.0717 95.9806 52.32 95.9763 52.6C95.9763 52.8754 95.924 53.1215 95.8196 53.3382C95.7195 53.5549 95.5823 53.7378 95.4082 53.8868C95.2341 54.0358 95.0339 54.1532 94.8075 54.239C94.5812 54.3202 94.3418 54.3631 94.0893 54.3677H92.2284V50.8187ZM92.2284 49.7757V46.6399H93.8804C94.1154 46.6444 94.3439 46.676 94.5659 46.7347C94.7923 46.7934 94.9925 46.8837 95.1666 47.0056C95.3364 47.1321 95.4713 47.2923 95.5715 47.4865C95.6759 47.6806 95.7282 47.9154 95.7282 48.1909C95.7282 48.4482 95.6759 48.674 95.5715 48.8681C95.467 49.0623 95.3299 49.2248 95.1601 49.3558C94.9903 49.4912 94.7966 49.5951 94.579 49.6673C94.3614 49.7351 94.1394 49.7712 93.913 49.7757H92.2284Z" fill="#C4C4C4"/>
<path d="M103.7 55.431H104.961V55.3226C104.882 55.1194 104.821 54.8824 104.778 54.6115C104.734 54.336 104.713 54.0764 104.713 53.8326V50.4259C104.713 50.015 104.641 49.656 104.497 49.349C104.353 49.042 104.158 48.7846 103.909 48.5769C103.657 48.3737 103.359 48.2225 103.015 48.1231C102.671 48.0193 102.299 47.9674 101.898 47.9674C101.459 47.9674 101.065 48.0306 100.717 48.157C100.373 48.2834 100.081 48.4482 99.8416 48.6514C99.5979 48.8591 99.4107 49.0916 99.2801 49.349C99.1539 49.6064 99.0886 49.8683 99.0842 50.1347H100.299C100.299 49.9811 100.334 49.8344 100.403 49.6944C100.477 49.5499 100.579 49.4258 100.71 49.3219C100.841 49.2181 101 49.1345 101.187 49.0713C101.378 49.0081 101.594 48.9765 101.833 48.9765C102.09 48.9765 102.321 49.0104 102.525 49.0781C102.734 49.1458 102.91 49.2406 103.054 49.3626C103.198 49.489 103.309 49.6402 103.387 49.8163C103.465 49.9924 103.505 50.1911 103.505 50.4123V50.988H102.186C101.694 50.988 101.248 51.0377 100.847 51.137C100.451 51.2364 100.112 51.3854 99.8286 51.584C99.5456 51.7872 99.3258 52.0401 99.1691 52.3426C99.0168 52.6451 98.9406 52.9973 98.9406 53.3991C98.9406 53.7062 98.9972 53.9929 99.1104 54.2593C99.2279 54.5212 99.3933 54.7469 99.6066 54.9366C99.8155 55.1307 100.07 55.2842 100.371 55.3971C100.675 55.51 101.015 55.5664 101.389 55.5664C101.62 55.5664 101.837 55.5416 102.042 55.4919C102.247 55.4423 102.44 55.3745 102.623 55.2888C102.802 55.203 102.965 55.1036 103.113 54.9907C103.265 54.8779 103.402 54.7582 103.524 54.6318C103.537 54.7853 103.557 54.9343 103.583 55.0788C103.613 55.2188 103.653 55.3362 103.7 55.431ZM101.565 54.476C101.33 54.476 101.124 54.4444 100.945 54.3812C100.767 54.318 100.619 54.2299 100.501 54.1171C100.384 54.0087 100.294 53.8778 100.233 53.7242C100.177 53.5707 100.149 53.4037 100.149 53.223C100.149 53.0334 100.181 52.8641 100.246 52.7151C100.316 52.5661 100.416 52.4374 100.547 52.329C100.73 52.1755 100.976 52.0626 101.285 51.9904C101.598 51.9136 101.964 51.8753 102.382 51.8753H103.505V53.3585C103.435 53.503 103.339 53.643 103.217 53.7784C103.095 53.9094 102.952 54.0268 102.786 54.1306C102.617 54.2345 102.429 54.318 102.225 54.3812C102.02 54.4444 101.8 54.476 101.565 54.476Z" fill="#C4C4C4"/>
<path d="M107.279 45.028V46.1184H109.681V54.3473H107.279V55.431H113.194V54.3473H110.889V45.028H107.279Z" fill="#C4C4C4"/>
<path d="M115.31 45.028V46.1184H117.712V54.3473H115.31V55.431H121.225V54.3473H118.92V45.028H115.31Z" fill="#C4C4C4"/>
<path d="M122.812 51.6992V51.8482C122.812 52.3765 122.886 52.8663 123.034 53.3179C123.182 53.7694 123.395 54.1622 123.674 54.4963C123.948 54.8305 124.283 55.0923 124.679 55.282C125.08 55.4716 125.53 55.5664 126.031 55.5664C126.527 55.5664 126.973 55.4716 127.369 55.282C127.765 55.0923 128.103 54.8305 128.381 54.4963C128.656 54.1622 128.867 53.7694 129.015 53.3179C129.163 52.8663 129.237 52.3765 129.237 51.8482V51.6992C129.237 51.1709 129.163 50.681 129.015 50.2295C128.867 49.7734 128.656 49.3784 128.381 49.0442C128.103 48.7101 127.763 48.4482 127.363 48.2586C126.967 48.0644 126.518 47.9674 126.018 47.9674C125.521 47.9674 125.075 48.0644 124.679 48.2586C124.283 48.4482 123.948 48.7101 123.674 49.0442C123.395 49.3784 123.182 49.7734 123.034 50.2295C122.886 50.681 122.812 51.1709 122.812 51.6992ZM124.02 51.8482V51.6992C124.02 51.3425 124.061 51.0016 124.144 50.6765C124.226 50.3469 124.353 50.0579 124.522 49.8096C124.688 49.5612 124.895 49.3648 125.143 49.2203C125.391 49.0713 125.683 48.9968 126.018 48.9968C126.353 48.9968 126.645 49.0713 126.893 49.2203C127.145 49.3648 127.356 49.5612 127.526 49.8096C127.691 50.0579 127.815 50.3469 127.898 50.6765C127.985 51.0016 128.029 51.3425 128.029 51.6992V51.8482C128.029 52.2094 127.987 52.5548 127.905 52.8844C127.822 53.2095 127.698 53.4962 127.532 53.7446C127.363 53.9929 127.152 54.1893 126.899 54.3338C126.651 54.4783 126.362 54.5505 126.031 54.5505C125.696 54.5505 125.402 54.4783 125.149 54.3338C124.897 54.1893 124.688 53.9929 124.522 53.7446C124.353 53.4962 124.226 53.2095 124.144 52.8844C124.061 52.5548 124.02 52.2094 124.02 51.8482Z" fill="#C4C4C4"/>
<path d="M134.042 46.3283H132.828V48.1028H130.973V49.0713H132.828V53.0537C132.828 53.5052 132.884 53.8913 132.998 54.2119C133.115 54.5279 133.274 54.7853 133.474 54.984C133.674 55.1872 133.909 55.3362 134.179 55.431C134.454 55.5213 134.747 55.5664 135.061 55.5664C135.248 55.5664 135.435 55.5574 135.622 55.5393C135.814 55.5213 135.994 55.4942 136.164 55.4581C136.334 55.4265 136.491 55.3881 136.634 55.3429C136.778 55.2933 136.9 55.2368 137 55.1736L136.83 54.2864C136.756 54.3044 136.66 54.327 136.543 54.3541C136.43 54.3767 136.308 54.3993 136.177 54.4218C136.042 54.4444 135.905 54.4647 135.766 54.4828C135.627 54.4963 135.492 54.5031 135.361 54.5031C135.183 54.5031 135.013 54.4805 134.852 54.4354C134.695 54.3902 134.556 54.3112 134.434 54.1983C134.312 54.09 134.216 53.9432 134.147 53.7581C134.077 53.573 134.042 53.3382 134.042 53.0537V49.0713H136.732V48.1028H134.042V46.3283Z" fill="#C4C4C4"/>
</svg>
